<svg version="1.1" viewBox="0.0 0.0 960.0 960.0" fill="none" stroke="none" stroke-linecap="square" stroke-miterlimit="10" xmlns:xlink="http://www.w3.org/1999/xlink" xmlns="http://www.w3.org/2000/svg"><clipPath id="gfd934ac951_0_29.0"><path d="m0 0l960.0 0l0 960.0l-960.0 0l0 -960.0z" clip-rule="nonzero"/></clipPath><g clip-path="url(#gfd934ac951_0_29.0)"><path fill="#ffffff" d="m0 0l960.0 0l0 960.0l-960.0 0z" fill-rule="evenodd"/><path fill="#000000" d="m313.92126 705.5694l0 0c0 -91.72272 74.35599 -166.07874 166.07874 -166.07874l0 0c44.046814 0 86.28961 17.497559 117.435425 48.64337c31.145813 31.145813 48.64331 73.38855 48.64331 117.43536l0 0c0 91.72278 -74.35596 166.07874 -166.07874 166.07874l0 0c-91.72275 0 -166.07874 -74.35596 -166.07874 -166.07874z" fill-rule="evenodd"/><path stroke="#595959" stroke-width="1.0" stroke-linejoin="round" stroke-linecap="butt" d="m313.92126 705.5694l0 0c0 -91.72272 74.35599 -166.07874 166.07874 -166.07874l0 0c44.046814 0 86.28961 17.497559 117.435425 48.64337c31.145813 31.145813 48.64331 73.38855 48.64331 117.43536l0 0c0 91.72278 -74.35596 166.07874 -166.07874 166.07874l0 0c-91.72275 0 -166.07874 -74.35596 -166.07874 -166.07874z" fill-rule="evenodd"/><path fill="#000000" d="m313.92126 265.71902l0 0c0 -91.72275 74.35599 -166.07874 166.07874 -166.07874l0 0c44.046814 0 86.28961 17.497536 117.435425 48.643333c31.145813 31.145813 48.64331 73.388596 48.64331 117.43541l0 0c0 91.72275 -74.35596 166.07874 -166.07874 166.07874l0 0c-91.72275 0 -166.07874 -74.35599 -166.07874 -166.07874z" fill-rule="evenodd"/><path stroke="#595959" stroke-width="1.0" stroke-linejoin="round" stroke-linecap="butt" d="m313.92126 265.71902l0 0c0 -91.72275 74.35599 -166.07874 166.07874 -166.07874l0 0c44.046814 0 86.28961 17.497536 117.435425 48.643333c31.145813 31.145813 48.64331 73.388596 48.64331 117.43541l0 0c0 91.72275 -74.35596 166.07874 -166.07874 166.07874l0 0c-91.72275 0 -166.07874 -74.35599 -166.07874 -166.07874z" fill-rule="evenodd"/></g></svg>