<svg version="1.1" viewBox="0.0 0.0 960.0 960.0" fill="none" stroke="none" stroke-linecap="square" stroke-miterlimit="10" xmlns:xlink="http://www.w3.org/1999/xlink" xmlns="http://www.w3.org/2000/svg">
 <style>
    .circle {
      fill: #000;
    }
    @media (prefers-color-scheme: dark) {
      .circle {
        fill: #fff;
      }
    }
  </style>
<clipPath id="g2a5ba60bc37_0_0.0"><path d="m0 0l960.0 0l0 960.0l-960.0 0l0 -960.0z" clip-rule="nonzero"/></clipPath><g clip-path="url(#g2a5ba60bc37_0_0.0)"><path class="circle" fill="#000000" fill-opacity="0.0" d="m0 0l960.0 0l0 960.0l-960.0 0z" fill-rule="evenodd"/><path class="circle" fill="#000000" d="m278.94226 750.0759l0 0c0 -111.03967 90.01544 -201.05511 201.05511 -201.05511l0 0c53.32312 0 104.46228 21.182556 142.16742 58.887695c37.70514 37.70514 58.887695 88.8443 58.887695 142.16742l0 0c0 111.03967 -90.01544 201.05511 -201.05511 201.05511l0 0c-111.03967 0 -201.05511 -90.01544 -201.05511 -201.05511z" fill-rule="evenodd"/><path stroke="#595959" stroke-width="1.0" stroke-linejoin="round" stroke-linecap="butt" d="m278.94226 750.0759l0 0c0 -111.03967 90.01544 -201.05511 201.05511 -201.05511l0 0c53.32312 0 104.46228 21.182556 142.16742 58.887695c37.70514 37.70514 58.887695 88.8443 58.887695 142.16742l0 0c0 111.03967 -90.01544 201.05511 -201.05511 201.05511l0 0c-111.03967 0 -201.05511 -90.01544 -201.05511 -201.05511z" fill-rule="evenodd"/><path class="circle" fill="#000000" d="m278.94226 209.58533l0 0c0 -111.03967 90.01544 -201.05511 201.05511 -201.05511l0 0c53.32312 0 104.46228 21.182531 142.16742 58.88768c37.70514 37.705147 58.887695 88.8443 58.887695 142.16743l0 0c0 111.03967 -90.01544 201.05511 -201.05511 201.05511l0 0c-111.03967 0 -201.05511 -90.01544 -201.05511 -201.05511z" fill-rule="evenodd"/><path stroke="#595959" stroke-width="1.0" stroke-linejoin="round" stroke-linecap="butt" d="m278.94226 209.58533l0 0c0 -111.03967 90.01544 -201.05511 201.05511 -201.05511l0 0c53.32312 0 104.46228 21.182531 142.16742 58.88768c37.70514 37.705147 58.887695 88.8443 58.887695 142.16743l0 0c0 111.03967 -90.01544 201.05511 -201.05511 201.05511l0 0c-111.03967 0 -201.05511 -90.01544 -201.05511 -201.05511z" fill-rule="evenodd"/></g></svg>